PathFileType	3	(X/Y/Z)	D:\VICON_DB\Goncalves\Pilot01\09-03-2026\bw_sq_120_02.trc
DataRate	CameraRate	NumFrames	NumMarkers	Units	OrigDataRate	OrigDataStartFrame	OrigNumFrames
200.0	200.0	9	34	mm	200.0	99	787	
Frame#	Time	LASI			RASI			LPSI			RPSI			LTHI			LTHAP			LTHAD			LKNE			LKNM			LTIB			LTIAP			LTIAD			LANK			LMED			LHEE			LTOE			LFMH			LSMH			LVMH			RTHI			RTHAP			RTHAD			RKNE			RKNM			RTIB			RTIAP			RTIAD			RANK			RMED			RHEE			RTOE			RFMH			RSMH			RVMH			
		X1	Y1	Z1	X2	Y2	Z2	X3	Y3	Z3	X4	Y4	Z4	X5	Y5	Z5	X6	Y6	Z6	X7	Y7	Z7	X8	Y8	Z8	X9	Y9	Z9	X10	Y10	Z10	X11	Y11	Z11	X12	Y12	Z12	X13	Y13	Z13	X14	Y14	Z14	X15	Y15	Z15	X16	Y16	Z16	X17	Y17	Z17	X18	Y18	Z18	X19	Y19	Z19	X20	Y20	Z20	X21	Y21	Z21	X22	Y22	Z22	X23	Y23	Z23	X24	Y24	Z24	X25	Y25	Z25	X26	Y26	Z26	X27	Y27	Z27	X28	Y28	Z28	X29	Y29	Z29	X30	Y30	Z30	X31	Y31	Z31	X32	Y32	Z32	X33	Y33	Z33	X34	Y34	Z34	
99	0.49	110.78915	895.88416	-1082.6434	109.78249	897.64154	-1345.333				301.51852	926.09381	-1255.3381	125.41396	697.21008	-1022.7314	142.17905	768.771	-1024.4236	174.64397	637.04962	-994.57214	219.48936	478.73373	-995.39581				268.53473	290.42938	-955.8349	195.32214	355.50961	-1006.0764	223.07236	258.45712	-967.03717	290.22086	74.057091	-947.00946				324.79947	62.062958	-1003.7091	207.12088	71.886414	-952.6972	149.10464	45.32534	-973.92651				169.90688	25.319139	-895.73761	165.54486	632.64819	-1422.4326	120.69572	755.35358	-1388.8876	102.48433	662.11865	-1385.0747	214.71741	495.62952	-1416.7917				242.71063	304.19281	-1455.2289	191.31271	347.32434	-1404.649	198.32356	266.66791	-1416.7949	280.76355	64.575623	-1452.5533				309.95383	58.762955	-1406.0698	185.83144	69.099854	-1452.1453	132.90955	49.454231	-1433.988				156.06102	17.3423	-1504.6416
100	0.495	110.83254	895.88666	-1082.6439	109.87452	897.6355	-1345.337				301.64774	926.22882	-1255.2329	125.40292	697.23132	-1022.7318	142.19197	768.78503	-1024.425	174.59282	637.05823	-994.53864	219.3678	478.72186	-995.34601				268.44394	290.41705	-955.80042	195.21016	355.49301	-1006.0176	222.98857	258.43427	-967.00488	290.21252	74.060516	-947.01111				324.78036	62.090683	-1003.7308	207.11378	71.879059	-952.69904	149.09613	45.322613	-973.92084				169.90704	25.31604	-895.73206	165.5858	632.66187	-1422.4547	120.77454	755.37292	-1388.8918	102.53654	662.15094	-1385.0845	214.70206	495.62296	-1416.8014				242.68872	304.18649	-1455.2382	191.28165	347.30225	-1404.6613	198.29984	266.66635	-1416.8058	280.76343	64.574715	-1452.5547				309.93637	58.756363	-1406.056	185.8217	69.098007	-1452.1521	132.90941	49.453659	-1433.9894				156.06186	17.340658	-1504.6416
101	0.5	110.8787	895.88885	-1082.6439	109.97058	897.63	-1345.3398				301.78012	926.3667	-1255.1263	125.395	697.2533	-1022.7296	142.20845	768.7998	-1024.4254	174.54419	637.06732	-994.5022	219.24573	478.70972	-995.29443				268.35291	290.40402	-955.76477	195.09695	355.47583	-1005.9563	222.90402	258.41129	-966.97076	290.20374	74.064072	-947.01276				324.76004	62.121059	-1003.7562	207.10628	71.871445	-952.70074	149.08739	45.319603	-973.91479				169.90721	25.312902	-895.72607	165.62517	632.6756	-1422.4769	120.85417	755.39337	-1388.8962	102.58839	662.18451	-1385.093	214.68338	495.61588	-1416.8112				242.66342	304.18027	-1455.2477	191.24643	347.2789	-1404.6743	198.27385	266.66513	-1416.8159	280.76331	64.573784	-1452.5557				309.92133	58.749779	-1406.0422	185.81462	69.095879	-1452.157	132.91002	49.452919	-1433.9899				156.0625	17.339293	-1504.6416
102	0.505	110.9276	895.89056	-1082.6434	110.07093	897.62512	-1345.3413				301.91595	926.50757	-1255.0183	125.39029	697.27588	-1022.7252	142.22835	768.81506	-1024.4247	174.49796	637.07678	-994.46295	219.12314	478.69754	-995.24127				268.26135	290.39053	-955.72809	194.98259	355.45804	-1005.8931	222.81876	258.38831	-966.93494	290.19458	74.067863	-947.01465				324.73849	62.154037	-1003.7856	207.09831	71.863747	-952.70227	149.07837	45.31646	-973.90845				169.90739	25.309881	-895.71967	165.66301	632.68927	-1422.4993	120.93474	755.41486	-1388.9008	102.63982	662.21967	-1385.1001	214.66121	495.60834	-1416.821				242.63452	304.17395	-1455.2577	191.2067	347.25467	-1404.6879	198.24535	266.66418	-1416.8254	280.76315	64.572853	-1452.5562				309.90833	58.7435	-1406.0286	185.81079	69.09375	-1452.1597	132.91138	49.452198	-1433.9894				156.06296	17.338266	-1504.6416
103	0.51	110.97923	895.89209	-1082.6426	110.1758	897.62128	-1345.3414				302.05508	926.65173	-1254.9093	125.38885	697.29919	-1022.7189	142.25154	768.83081	-1024.4231	174.45413	637.08679	-994.42096	218.99992	478.68539	-995.18646				268.1691	290.37665	-955.69086	194.86687	355.43948	-1005.8282	222.73282	258.36539	-966.89758	290.18497	74.072014	-947.0166				324.71585	62.189308	-1003.8187	207.08995	71.856102	-952.70374	149.06912	45.313354	-973.90198				169.90756	25.30711	-895.71295	165.69937	632.70306	-1422.5222	121.01643	755.43713	-1388.9052	102.69086	662.25629	-1385.1058	214.63518	495.60046	-1416.8311				242.60175	304.16742	-1455.2681	191.16183	347.23007	-1404.7026	198.21399	266.66321	-1416.8345	280.76282	64.571922	-1452.5565				309.89716	58.737732	-1406.0156	185.81053	69.091858	-1452.1597	132.91336	49.451645	-1433.988				156.06329	17.337627	-1504.6415
104	0.515	111.03361	895.89313	-1082.6415	110.28548	897.61841	-1345.34				302.19742	926.79883	-1254.7992	125.39063	697.32312	-1022.7112	142.27788	768.84729	-1024.4205	174.41261	637.09735	-994.37628	218.87601	478.67355	-995.13007				268.07608	290.36255	-955.65295	194.74936	355.41977	-1005.7626	222.64615	258.34244	-966.85907	290.17502	74.076614	-947.0188				324.69238	62.226273	-1003.8553	207.08125	71.848663	-952.70532	149.05965	45.310413	-973.89551				169.90773	25.30468	-895.70612	165.73438	632.71716	-1422.5455	121.09952	755.46021	-1388.9098	102.74161	662.29456	-1385.1102	214.60495	495.59222	-1416.8411				242.56483	304.16058	-1455.2789	191.11124	347.20584	-1404.7186	198.17949	266.66193	-1416.843	280.76233	64.571014	-1452.5566				309.88751	58.732681	-1406.0039	185.81409	69.090431	-1452.1569	132.91576	49.451378	-1433.9865				156.06346	17.337404	-1504.6415
105	0.52	111.09081	895.89374	-1082.6406	110.40025	897.61664	-1345.337				302.34271	926.94861	-1254.6888	125.39552	697.34778	-1022.702	142.30725	768.86407	-1024.4167	174.37325	637.10852	-994.3291	218.75124	478.66196	-995.07196				267.98215	290.34827	-955.61475	194.6295	355.39865	-1005.6964	222.55867	258.31943	-966.81958	290.16479	74.081787	-947.02118				324.66837	62.264027	-1003.8947	207.07234	71.841492	-952.70703	149.05008	45.307709	-973.88922				169.90794	25.302654	-895.69916	165.7681	632.73138	-1422.5698	121.18431	755.48395	-1388.9143	102.7922	662.33459	-1385.1134	214.57011	495.58371	-1416.8513				242.52336	304.1532	-1455.2899	191.05406	347.18243	-1404.7363	198.14133	266.65985	-1416.8517	280.76141	64.57016	-1452.5569				309.87915	58.728531	-1405.9939	185.82135	69.089638	-1452.1514	132.9182	49.451431	-1433.9844				156.06352	17.337591	-1504.6415
106	0.525	111.15087	895.89398	-1082.64	110.52045	897.61591	-1345.3323				302.49063	927.10077	-1254.5787	125.40333	697.37299	-1022.692	142.33949	768.88141	-1024.412	174.33585	637.12	-994.27942	218.62543	478.6506	-995.01215				267.88721	290.33383	-955.57611	194.50682	355.37595	-1005.6302	222.47026	258.29617	-966.77924	290.1543	74.08754	-947.0238				324.64438	62.301517	-1003.9354	207.06334	71.834641	-952.70905	149.04048	45.30526	-973.88312				169.90814	25.30105	-895.6922	165.80066	632.74579	-1422.5953	121.27118	755.50824	-1388.9187	102.84278	662.37646	-1385.115	214.53021	495.57474	-1416.8615				242.47691	304.14502	-1455.3014	190.98958	347.16013	-1404.7557	198.099	266.65649	-1416.8604	280.76004	64.569382	-1452.5574				309.87213	58.72546	-1405.986	185.83194	69.089561	-1452.1436	132.92035	49.45179	-1433.9827				156.06349	17.338156	-1504.6414
107	0.53	111.21394	895.89349	-1082.64	110.64642	897.61597	-1345.3257				302.64093	927.25464	-1254.4691	125.4138	697.39856	-1022.681	142.37447	768.89905	-1024.4061	174.30022	637.13202	-994.22754	218.49823	478.63934	-994.95056				267.79111	290.31931	-955.53705	194.38078	355.35147	-1005.5642	222.3806	258.27231	-966.73828	290.14362	74.093842	-947.02667				324.62076	62.33778	-1003.9763	207.05432	71.828056	-952.7113	149.03093	45.303005	-973.87738				169.90826	25.299847	-895.68542	165.83217	632.76068	-1422.6226	121.36057	755.5329	-1388.923	102.89354	662.42029	-1385.1155	214.48466	495.56525	-1416.8716				242.42491	304.13574	-1455.3132	190.91702	347.13919	-1404.7769	198.05191	266.65094	-1416.8693	280.75797	64.568764	-1452.5582				309.86633	58.723686	-1405.9803	185.84489	69.090256	-1452.1333	132.92195	49.4524	-1433.9814				156.06342	17.339062	-1504.6412
